<?xml version="1.0" encoding="iso-8859-1"?>
<!-- Generator: Adobe Illustrator 19.0.0, SVG Export Plug-In . SVG Version: 6.00 Build 0)  -->
<svg version="1.1" id="Capa_1" xmlns="http://www.w3.org/2000/svg" xmlns:xlink="http://www.w3.org/1999/xlink" x="0px" y="0px"
	 viewBox="0 0 512 512" style="enable-background:new 0 0 512 512;" xml:space="preserve">
<path style="fill:#FD3C65;" d="M488.849,99.519L335.896,36.899L187.962,439.863l157.661,60.931
	c10.377,3.779,21.853-1.57,25.632-11.946l129.54-363.707C504.574,114.764,499.225,103.298,488.849,99.519z"/>
<path style="fill:#FFFFFF;" d="M335.896,36.899V419.87c0,11.047-8.947,19.994-19.994,19.994h-127.94H29.991
	c-11.047,0-19.994-8.947-19.994-19.994V29.991c0-11.047,8.947-19.994,19.994-19.994h285.911c11.047,0,19.994,8.947,19.994,19.994
	V36.899z"/>
<path style="fill:#57555C;" d="M265.268,206.896c0,26.312-18.244,48.515-44.696,48.515c-9.077,0-16.495-2.759-22.463-6.838
	c-1.42,5.548-2.169,11.356-2.169,17.345c0,19.594,8.057,37.308,21.033,50.004c-5.958-0.02-11.037-0.02-11.037-0.02h-59.981
	c0,0-5.528,0-11.047,0c12.996-12.686,21.043-30.391,21.043-49.984c0-6.008-0.76-11.836-2.179-17.395
	c-6.018,4.089-13.466,6.888-22.603,6.888c-26.462,0-44.696-22.203-44.696-48.515c0-20.724,11.796-40.467,31.75-59.522
	c15.085-14.406,34.819-30.131,57.642-49.915c9.687,8.387,18.804,16.045,27.252,23.183
	C240.956,152.613,265.268,177.145,265.268,206.896z"/>
<path d="M215.933,59.981c5.518,0,9.997-4.479,9.997-9.997s-4.479-9.997-9.997-9.997s-9.997,4.479-9.997,9.997
	S210.415,59.981,215.933,59.981z"/>
<path d="M135.958,389.879c-5.518,0-9.997,4.479-9.997,9.997s4.479,9.997,9.997,9.997c5.518,0,9.997-4.479,9.997-9.997
	S141.476,389.879,135.958,389.879z"/>
<path d="M209.569,113.007l-3.973-3.354c-7.398-6.245-15.047-12.702-23.188-19.75c-3.757-3.254-9.335-3.253-13.091,0.004
	c-8.116,7.035-15.754,13.482-23.14,19.716c-13.388,11.3-24.949,21.058-34.859,30.522c-23.445,22.388-34.842,44.223-34.842,66.751
	c0,15.454,5.31,29.934,14.953,40.77c14.642,16.456,36.627,21.013,54.467,15.606c0.039,0.881,0.058,1.762,0.058,2.645
	c0,16.271-6.403,31.481-18.029,42.831c-2.909,2.839-3.809,7.159-2.275,10.924c1.534,3.766,5.193,6.227,9.259,6.227h71.027
	c0.006,0,5.066,0,11.003,0.02c0.012,0,0.022,0,0.034,0c4.056,0,7.712-2.451,9.25-6.206c1.544-3.766,0.65-8.09-2.258-10.936
	c-11.626-11.375-18.028-26.597-18.028-42.86c0-0.869,0.019-1.734,0.055-2.6c17.944,5.387,39.781,0.681,54.316-15.651
	c9.645-10.838,14.957-25.317,14.957-40.77C275.265,171.403,245.513,143.375,209.569,113.007z M203.749,240.319
	c-2.692-1.84-6.113-2.251-9.166-1.101c-3.052,1.15-5.351,3.717-6.159,6.877c-1.646,6.435-2.481,13.104-2.481,19.822
	c0,14.29,3.706,27.974,10.67,39.988h-41.338c6.967-12.004,10.675-25.69,10.675-39.988c0-6.715-0.838-13.4-2.49-19.869
	c-0.807-3.156-3.1-5.721-6.146-6.875c-3.045-1.155-6.463-0.751-9.158,1.081c-20.276,13.775-51.684-0.555-51.684-33.359
	c0-16.773,9.373-33.877,28.657-52.292c9.466-9.039,20.811-18.615,33.947-29.703c5.427-4.582,10.991-9.277,16.794-14.249
	c5.819,4.982,11.392,9.687,16.832,14.278l3.965,3.348l0,0c38.009,32.114,58.606,54.154,58.606,78.617
	C255.271,239.895,223.633,253.908,203.749,240.319z"/>
<path d="M295.908,39.988h-39.988c-5.521,0-9.997,4.476-9.997,9.997s4.476,9.997,9.997,9.997h39.988c5.521,0,9.997-4.476,9.997-9.997
	S301.43,39.988,295.908,39.988z"/>
<path d="M95.971,389.879H49.985c-5.521,0-9.997,4.476-9.997,9.997s4.476,9.997,9.997,9.997h45.986c5.521,0,9.997-4.476,9.997-9.997
	S101.492,389.879,95.971,389.879z"/>
<path d="M492.471,90.2L345.893,30.19v-0.199C345.893,13.454,332.439,0,315.902,0H29.991C13.454,0,0,13.454,0,29.991V419.87
	c0,16.537,13.454,29.991,29.991,29.991h156.107l155.922,60.259c0.061,0.023,0.122,0.046,0.183,0.069
	c3.375,1.229,6.828,1.812,10.228,1.811c12.255-0.001,23.794-7.581,28.242-19.797l129.516-363.641
	C515.821,113.094,507.877,95.933,492.471,90.2z M19.994,419.87V29.991c0-5.512,4.485-9.997,9.997-9.997h285.911
	c5.512,0,9.997,4.485,9.997,9.997v6.966c0,0.029,0,0.058,0,0.087V419.87c0,5.512-4.485,9.997-9.997,9.997H29.991
	C24.479,429.867,19.994,425.382,19.994,419.87z M491.378,121.787l-129.516,363.64c-1.876,5.155-7.58,7.834-12.742,6.001
	L241.561,449.86h74.341c16.537,0,29.991-13.454,29.991-29.991V51.794l139.168,56.976c0.122,0.05,0.244,0.097,0.367,0.142
	C490.606,110.799,493.287,116.545,491.378,121.787z"/>
<g>
</g>
<g>
</g>
<g>
</g>
<g>
</g>
<g>
</g>
<g>
</g>
<g>
</g>
<g>
</g>
<g>
</g>
<g>
</g>
<g>
</g>
<g>
</g>
<g>
</g>
<g>
</g>
<g>
</g>
</svg>
